<svg id="Layer_1" xmlns="http://www.w3.org/2000/svg" viewBox="0 0 120 120">
  <style>
    .st0{fill:#fedf6c;} .st1{fill:#FFFFFF;} .st2{fill:#FFFFFF;} .st3{fill:#FFFFFF;}
  </style>
  <path class="st0" d="M60.1 3.9h33.5c2.9 0 5.8.1 5.9 3.8.1 3.2 1.7 3.2 4.1 3.2 3.7-.1 7.3 0 11 0 3.7-.1 5.6 1.6 4.8 5.3-2.6 13.4-7.2 25.9-16.2 36.5-2.7 3.2-6 2.9-9.5 2.9-7.8 0-12.9 4.1-14.4 11.7-1 5-3 10 .9 14.9 1.5 1.9 1.5 4.9.3 7.2-1.8 3.4-1.5 5.8 2.1 7.9 2.1 1.2 3.5 3.5 4.7 5.8 5.1 9.8 3.2 13.1-7.5 13.1H36.5c-5.9 0-7.1-1.4-5.9-7.3 1-5.1 3.5-9.4 7.7-12.4 2.2-1.6 3.1-2.8 1.6-5.6-1.6-3-1.3-6.3-.1-9.5 3.6-8.9 1.5-17.7-5.5-24.3-2.4-2.3-5.1-1.6-7.6-1.4-5.7.6-9.4-1.8-12.6-6.2C7.1 39.4 3 28.3.7 16.5c-.8-3.9.9-5.9 4.9-5.7 2.7.1 5.4 0 8.1 0 3.2 0 6.9 1.2 7.2-4.4.1-2.8 3.4-2.5 5.7-2.5h33.5z"/>
  <path class="st1" d="M60.4 11c9 0 18.1.1 27.1-.1 3.4-.1 4.9.5 4.5 4.4-1.8 15.7-4.8 30.8-16.8 42.5-3 2.9-2.6 7.1-3.4 10.8-.7 3.4-1.8 5.6-5.8 4.8-.7-.2-1.5 0-2.3 0-4.4 0-9.5 1.3-13.1-.5C46.7 71 48.2 65 46.8 61c-.5-1.3-1.1-2.4-2.1-3.4-12.2-11.8-15-27.1-16.7-43-.4-3.5 1.4-3.7 4.1-3.6h28.3z"/>
  <path class="st2" d="M59.8 109.1c-6.2 0-12.3-.1-18.5 0-2.9 0-3.5-1.1-1.9-3.4 2.7-4 6.2-6.9 11.3-7 6.2-.1 12.3 0 18.5 0 4.7 0 7.9 2.6 10.7 5.9.8 1 2 2.1 1.4 3.6-.7 1.7-2.4.8-3.6.9H59.8zM28.6 47.6c-4 1-6.4.5-8.4-2.3-5.4-7.4-8.7-15.7-11.2-24.4-.7-2.3-.1-3.2 2.3-3 .6.1 1.2.1 1.7 0 5.5-.9 8.6.4 9 7 .6 7.8 3.4 15.2 6.6 22.7zM91.6 47.4c3.6-8.7 6-17.7 7.2-27.1.6-4.5 4.2-2.3 6.4-2.4 6.8-.3 6.9-.1 4.9 6.2-2.3 7.3-5.4 14.3-9.9 20.6-2.2 3.2-4.7 4.3-8.6 2.7z"/>
  <path class="st3" d="M60.1 91.6c-2.7 0-5.4.1-8 0-3.5-.2-5.8-1.8-5.8-5.7 0-3.5 2.3-5.2 5.5-5.3 5.5-.2 11.1-.2 16.6 0 3.2.1 5.3 2.1 5.2 5.6-.1 3.5-2.3 5.1-5.5 5.3-2.6.2-5.3.1-8 .1z"/>
</svg>
