<svg id="Layer_1" xmlns="http://www.w3.org/2000/svg" viewBox="0 0 120 120"><style>.st0{fill:#fedf6c;} .st1{fill:#FFFFFF;} .st2{fill:#FFFFFF;}</style><path class="st0" d="M116.5 28.5v20.6c-4.4 5.3-4.5 11.7-4.4 18.4.2 11.6.2 23.2 0 34.9-.1 7.8-2 9.8-9.4 9.9-28.1.1-56.1.1-84.2 0-8 0-9.8-2-9.9-10.4-.2-13.4-.1-26.9-.1-40.3 0-3.5.1-6.9-3.1-9.2-.4-.3-.6-.8-.7-1.2-1.7-8-1.4-15.9-.2-23.8.3-2.2 2.4-2.7 4.3-2.9 2.9-.2 5.8-.2 8.7-.2 3.2 0 5.1-1.3 5.8-4.9C24.8 12.8 30.2 8.1 36 7.8c6.9-.4 12.2 3.2 14.7 10.1.9 2.4.8 5.6 3.9 6 4.2.6 8.6 1.2 12.7-.5 1.8-.7 1.8-2.9 2.3-4.6 1.8-5.7 5.2-9.7 10.9-10.8 5.8-1.2 10.5 1 14.3 5.7 1.3 1.7 2.3 3.5 2.5 5.7.4 3.7 2.5 4.9 5.7 4.9 2.3 0 4.6.1 6.9.1 3.1-.1 5.5.9 6.6 4.1z"/><path class="st1" d="M60.1 101.3c-11.9 0-23.9-.1-35.8.1-2.9 0-3.9-.8-3.9-4 .2-14.2.1-28.4 0-42.7 0-2.7.7-3.6 3.3-3.6 24.3.1 48.7.1 73 0 2.5 0 3.4.7 3.4 3.5-.1 14.4-.2 28.8 0 43.1 0 3.3-1.2 3.6-3.8 3.6H60.1z"/><path class="st2" d="M41.1 29.9c0 2.8.1 5.5 0 8.3-.2 2.6-1.6 4.2-4.1 4.4-2.5.2-4.3-1.2-4.6-3.7-.7-6.1-.7-12.3 0-18.4.3-2.5 2.1-4 4.6-3.7 2.5.2 3.9 1.9 4.1 4.4.1 2.9 0 5.8 0 8.7zM79.6 30c0-2.8-.1-5.5 0-8.3.1-2.8 1.3-4.7 4.1-5 2.8-.3 4.6 1.5 4.8 4.1.3 5.8.3 11.7 0 17.5-.1 2.7-2 4.4-4.7 4.2-2.7-.2-4.1-2-4.2-4.8-.1-2.5 0-5.1 0-7.7z"/></svg>