<svg id="Layer_1" xmlns="http://www.w3.org/2000/svg" viewBox="0 0 120 120">
  <style>
    .st0{fill:#fedf6c;} .st1{fill:#FFFFFF;} .st2{fill:#FFFFFF;} .st3{fill:#FFFFFF;} .st4{fill:#FFFFFF;}
  </style>
  <path class="st0" d="M59.5 2h1c2.7 1.7 5.7 1 8.6 1 3.2 0 5.5.8 5.9 4.3.3 3.5.3 7.1-3.7 8.8-.8.4-1.7.4-2.5.6-1.2.2-2.6.1-3 1.6-.4 1.7 1.2 2.3 2.2 3.1 3.1 2.3 6.6 3.8 9.9 5.6 4.8 2.7 6.8 6.4 6.7 11.8-.1 7.2.5 7.6 7.7 7.7 3.6 0 7.3-.1 10.9.1 6.9.3 10.1 3.4 10.3 10.3.3 12.1.1 24.3.1 36.4 0 5 0 9.9 2 14.8 2.2 5.2-.8 9.2-6.4 9.8-1.4.2-2.8.1-4.2.1H14.6c-1.4 0-2.8.1-4.2-.1-5.6-.6-8.5-4.6-6.3-9.9 2-4.7 2-9.4 2-14.2 0-11.8-.1-23.6.1-35.3.1-8.9 3.1-11.7 12-11.9 4-.1 8 0 12-.1 3.4 0 5.5-1.7 5-5.1-1.4-9.5 4.3-14 11.8-17.1 6.6-2.8 10.3-7.1 9.2-14.8-.4-2.9 0-5.9 3.3-7.5z"/>
  <path class="st1" d="M68.1 93v.5c0 13.2 0 13.2-13.1 11.8-2.2-.2-3.1-1-3.1-3.1.1-6.6 0-13.1 0-19.7 0-2.5 1.1-3.9 3.7-3.9h.5c12-1 12-1 12 14.4z"/>
  <path class="st2" d="M59.9 34.6c4.3 0 7.9 3.4 8 7.8.1 4.6-3.4 8.4-7.9 8.4-4.6 0-8.1-3.7-8-8.3.1-4.3 3.6-7.8 7.9-7.9z"/>
  <path class="st3" d="M28.1 86.1c.6 4.6-2 5.4-6 5.5-4.7.1-5.3-2.2-5.4-6.1 0-4.3 2.1-5.2 5.8-5.3 4.3-.1 6.1 1.7 5.6 5.9zM103.1 86.2c.7 4.8-2 5.3-5.9 5.4-4.2.1-5.3-1.8-5.4-5.6-.1-4.3 1.7-5.8 5.9-5.8s6 1.8 5.4 6z"/>
  <path class="st4" d="M28.1 68.8c.6 4.6-2 5.4-5.9 5.5-4.5.1-5.4-2-5.5-6 0-4.3 2-5.1 5.7-5.2 4.3-.1 6.3 1.4 5.7 5.7zM103.1 68.8c.8 4.7-1.9 5.4-5.8 5.5-4 0-5.5-1.5-5.5-5.5 0-4.2 1.5-5.8 5.8-5.7 4.1 0 6.2 1.3 5.5 5.7zM39.6 80.3c4.3-.6 5.8 1.4 5.7 5.6-.1 3.7-.9 5.7-5.2 5.7-3.9 0-6.1-.9-6-5.4.1-3.9.9-6.5 5.5-5.9zM85.6 85.8c.8 4.6-1.4 5.8-5.5 5.9-4.6.1-5.4-2.1-5.4-6 0-4 1.6-5.5 5.5-5.5 4.1 0 6.3 1.3 5.4 5.6z"/>
  <path class="st1" d="M45.1 68.7c.6 4-1.2 5.5-5.2 5.5-4.2 0-5.8-1.3-5.8-5.7S35.9 63 40 63c4.2.1 5.7 1.8 5.1 5.7zM80.3 63.3c4.5-.8 5.5 1.6 5.5 5.6 0 4.2-1.7 5.3-5.5 5.4-4.4.1-5.6-1.7-5.6-5.9.1-4 1.5-5.8 5.6-5.1z"/>
</svg>
