<svg id="Layer_1" xmlns="http://www.w3.org/2000/svg" viewBox="0 0 120 120">
  <style>
    .st0{fill:#fedf6c;} .st1{fill:#FFFFFF;} .st2{fill:#fedf6c;} .st3{fill:#fedf6c;} .st4{fill:#fedf6c;}
  </style>
  <path class="st0" d="M110.5 59.8v48.8c0 6.9-1.9 8.7-8.7 8.7H18.4c-7.1 0-8.9-1.8-8.9-9.2 0-24.2.1-48.4-.1-72.6 0-4.6 1.2-8.5 4.1-12 4.3-5.1 8.3-10.3 12.4-15.5 3-3.8 6.9-5.5 11.8-5.5 21.4.1 42.7 0 64.1.1 6.8 0 8.5 1.9 8.5 8.9.2 16.2.2 32.3.2 48.3z"/>
  <path class="st1" d="M100.3 59.8c0 14.2-.1 28.3.1 42.5 0 3.4-.4 5-4.5 5-24-.2-48-.2-71.9 0-3.7 0-4.3-1.3-4.3-4.6.1-22.3.1-44.6 0-66.8 0-2.6 1.2-4.5 2.4-6.7 7.5-13.4 18.2-18.5 33.8-16.6 13 1.6 26.4.5 39.6.2 4.1-.1 5 1.2 5 5.1-.3 13.9-.2 27.9-.2 41.9z"/>
  <path class="st2" d="M61.8 53.9H41.4c-3.2 0-5.7-1.1-5.9-4.6-.2-3.9 2.3-5.4 5.7-5.4 13.6-.1 27.1-.1 40.7 0 3.3 0 6.1 1.4 5.9 5.3-.2 3.9-2.9 4.8-6.3 4.8-6.5-.2-13.1-.1-19.7-.1zM61.9 63.9h19.8c3.4 0 6.1 1.1 6.2 5 .1 3.9-2.7 5.2-6 5.2-13.4.1-26.8.1-40.1 0-3.3 0-6.2-1.1-6.2-5 0-4.3 3-5.1 6.6-5.1 6.5 0 13.1-.1 19.7-.1z"/>
  <path class="st3" d="M62.3 24h19.3c3.4 0 6.2.8 6.3 4.8.1 4-2.8 5.2-6.1 5.2-13.4.1-26.9.1-40.3 0-3.2 0-6.2-1.1-6-5.2.2-4 3-4.8 6.3-4.8h20.5z"/>
  <path class="st4" d="M62 84.1h19.8c3.4 0 6.1 1 6 5-.1 3.6-2.5 4.7-5.8 4.7H41.2c-3.2 0-5.7-1.1-5.7-4.7-.1-4 2.6-5 6-5H62z"/>
</svg>
