<svg xmlns="http://www.w3.org/2000/svg" xmlns:xlink="http://www.w3.org/1999/xlink" version="1.1" id="Layer_1" x="0" y="0" viewBox="0 0 120 120" xml:space="preserve" enable-background="new 0 0 120 120"><style type="text/css">
	.st0{fill:#fedf6c;}
	.st1{fill:#fedf6c;}
	.st2{fill:#FFFFFF;} 
	.st3{fill:#fedf6c;}
</style><g id="joinusnow"><path class="st0" d="M68.2 119.1c-6.1-0.5-13.4 0.8-20.6-1 -16.1-3.9-27.2-18.3-27.8-35.4 -0.5-13.8 1.7-26.3 12.5-35.8 2.9-2.5 0.3-4.2-0.6-6.1 -8.9-18.6 3.9-39.9 23.8-40 19.9 0 33 21.7 23.6 39.9 -1.9 3.8-1.7 5.5 1.3 8.1 3.4 2.9 5.7 6.9 7.4 11.1 0.8 2.1 0.6 3.9-1.4 5.1 -2.1 1.3-3.7 0.1-4.8-1.7 -1-1.6-1.9-3.5-2.9-5.1 -4.7-7.1-5.8-7.3-13.6-4.4 -7.6 2.8-15.2 2.7-22.2-1.5 -2.7-1.6-4.4-1.2-6.5 0.8 -9.2 8.2-12.6 24.6-7.9 38.3 4.2 12.1 14.6 19.5 28 19.6 7.7 0.1 15.4-0.1 23 0.1 2.9 0.1 4.9-0.4 4.6-4.1 -0.2-2.4 0.8-4.5 3.5-4.2 2.6 0.2 3.3 2.4 3.3 4.7 0 2 0 3.9 0 5.9 0.1 3.9-1.5 5.8-5.5 5.7C80.1 119 74.7 119.1 68.2 119.1z"/><path class="st1" d="M100.4 84.3c-0.3 2.9-2.1 4.1-4.7 3.8 -4.9-0.5-7.7 0.7-6.8 6.5 0.4 2.4-0.8 4.3-3.5 4.2 -2.7-0.1-3.6-2.2-3.3-4.5 0.7-4.8-1-6.8-5.9-6.2 -2.5 0.3-4.7-0.7-4.6-3.9 0.1-2.9 2.3-3.5 4.5-3.2 4.8 0.7 6.6-1.3 5.9-6.2 -0.3-2.6 0-5.4 3.5-5.4 3.2 0 3.7 2.6 3.3 5 -0.9 5.8 1.8 7.1 6.8 6.6C97.9 80.8 99.9 81.3 100.4 84.3z"/><path class="st2" d="M55.4 48.1c-10.5 0-19.5-9.3-19.4-20 0.1-10.6 9-19.7 19.1-19.8 10.6-0.1 19.5 8.9 19.7 19.8C75.1 38.8 65.9 48.1 55.4 48.1z"/><path class="st3" d="M39.3 27c-0.1-7.5 7-15.2 14.5-15.5 2.4-0.1 4.8 0.1 5.1 3.2 0.3 2.7-1.4 3.7-3.8 4.1 -5.2 0.8-8 4-8.7 9.3 -0.3 2.3-1.5 3.6-3.8 3.5C39.9 31.3 39.2 29.4 39.3 27z"/></g></svg>