<svg id="Layer_1" xmlns="http://www.w3.org/2000/svg" viewBox="0 0 120 120">
  <style>
    .st0{fill:#000;} .st1{fill:#000;}
  </style>
  <path class="st0" d="M56.3 52.2c-1.2 7 2.4 7.3 7.1 7.2 13.7-.2 27.5-.3 41.2 0 4.6.1 5.6-1.4 5.5-5.7-.3-12.6-.2-25.1 0-37.7.1-3.7-.7-5.2-4.8-5.1-14.7.2-29.4.2-44.2 0-4.1-.1-5 1.3-4.9 5.1.2 6 1.9 12.9-7.2 15.5 0-7.9-.1-15.8.1-23.7.1-2.8 2-4 4.8-4h58.3c3.9 0 5.1 1.9 5.1 5.5-.1 17.3-.1 34.6 0 51.8 0 4.2-1.9 5.6-5.8 5.4-4.1-.1-8.3.2-12.4-.1-4.4-.4-4.9 1.6-4 5.2 2.9 12.6 5.5 25.3 8.4 37.9.7 3.1 1.5 6.4-2.3 7.3-4.1 1-4.5-2.8-5.1-5.7-2.9-13.2-5.7-26.4-8.6-39.6-.5-2.2-.2-5.3-4.2-5.1-3.5.2-3.4 2.5-3.9 4.8-2.7 12.3-5.4 24.5-8.1 36.7-.3 1.5-.8 3-1 4.6-.5 2.6-1.6 4.8-4.5 4.4-3.5-.5-3.3-3.5-2.8-6 1.3-6.5 2.8-13 4.2-19.5 1.4-6.7 2.6-13.5 4.4-20.1 1.3-4.4-.4-5-4.1-4.8-3.7.2-7.5 0-11.2 0-2.9 0-6.3.5-7.1-3.4-.7-3.4-1.1-7.1 3.6-8.4.9-.3 1.6-1.1 3.5-2.5zM20.9 41.7c-6.8 3.2-6.4 6.3-2.1 9.9 1 .9 1.8 2.1 2.6 3.2 1.7 2.3 1.4 4.5-.6 6.3-1.8 1.6-4.2 1.9-5.9.2C11 57.2 7.2 53 3.6 48.5 1.8 46.3 3.1 44 5 42.3c4.4-4.2 8.6-8.6 13.3-12.5 4.3-3.7 9.6-3.1 14.5-1.3 4.4 1.7 5.4 5.8 5.4 10.2v70.6c0 2.7-.3 5.1-2.7 6.8-1.4 1-2.9 1.3-4.5.8-2.3-.8-1.1-2.5-1-3.9.1-10.6.1-21.2.1-31.8 0-1.4.7-3.6-1.6-3.7-2.9-.1-1.9 2.4-2 3.9-.1 9.2-.1 18.4 0 27.7 0 4.1-.8 7.9-5.7 7.9s-5.8-3.8-5.8-7.9c0-13 0-25.9-.1-38.9 0-2.5.4-3.6 3.4-4.1 8.5-1.5 10.6-8.6 5-15.3-2.1-2.4-6.2-4.2-2.4-9.1zM37.3 13.8c.1 6.2-4.9 11.4-10.9 11.3-5.8-.1-10.7-5-10.8-11 0-6 4.5-11 10.4-11.2 6.2-.3 11.2 4.6 11.3 10.9z"/>
  <path class="st1" d="M41.8 35.5c4.8 6.5 7.8 4.3 10.7-.2 2-3.1 4.9-3.5 8.8-3.9 6-.5 11.8-3.8 17.8-5.7 1.5-.5 3.6-2.4 4.7-.4 1.2 2.2-1.7 2.6-3 3.5C70.6 35.3 59 39.8 52 50.5c-1.1 1.6-3.2 2.5-5.2 1.5-2.2-1.1-4.8-2.2-4.9-5.3-.2-3.3-.1-6.6-.1-11.2z"/>
</svg>
