<svg xmlns="http://www.w3.org/2000/svg" viewBox="0 0 120 120"><style type="text/css"> ._icon{fill:#292929;} ._inner{fill:#FEFEFE;} </style><path class="_icon" d="M118.6 60c-0.1 32.8-26.3 58.7-59.3 58.6 -32-0.1-58.1-26.7-57.9-59.1C1.5 27.2 28 1.2 60.6 1.4 92.6 1.5 118.7 27.9 118.6 60z"/><path class="_inner" d="M60 3.8c30.8 0 56.2 25.4 56.1 56.1 -0.1 31.1-25.2 56.2-56.3 56.2 -30.6 0-56-25.5-56-56.2C3.9 29.1 29.2 3.8 60 3.8z"/><path class="_icon" d="M83.1 54.2c1.4-1.8 2.8-3.7 4.2-5.5 0.5-0.6 0.8-1.4 1.9-0.7 1.1 0.8 0.3 1.3-0.1 2 -2.7 3.6-5.3 7.3-8 10.9 -1 1.3-1.5 2.7-1.5 4.4 0.1 6.3 0 12.6 0.1 18.9 0 1.7-0.4 2.2-2.2 2.2 -11.5-0.1-23.1-0.1-34.6 0 -1.8 0-2.1-0.7-2.1-2.3 0-15.2 0-30.5 0-45.7 0-1-0.2-2.1 1.4-2 1.3 0.1 1.8-0.4 1.8-1.7 0-0.8 0.4-1.4 1.3-1.4 0.9 0 1.1 0.7 1.2 1.5 0 0.7 0 1.6 0.9 1.6 1 0 0.9-0.8 0.9-1.6 0-0.8 0.3-1.4 1.2-1.5 1.1 0 1.2 0.8 1.3 1.7 0 0.6 0.1 1.3 0.9 1.3 1.1 0.1 0.9-0.8 1-1.5 0-0.9 0.5-1.6 1.4-1.6 0.8 0.1 1.1 0.8 1 1.6 0 0.8 0.1 1.5 1.1 1.4 0.8 0 0.8-0.7 0.8-1.3 0-0.9 0.4-1.7 1.3-1.7 0.8 0 1.1 0.8 1.1 1.5 0 0.7 0 1.5 1 1.4 0.8 0 0.8-0.7 0.8-1.3 0-0.9 0.3-1.7 1.3-1.6 0.8 0 1.1 0.7 1.2 1.5 0 0.7-0.1 1.6 1 1.5 0.7-0.1 0.8-0.7 0.8-1.4 0-0.9 0.3-1.7 1.3-1.6 0.8 0.1 1.1 0.7 1.1 1.5 0 0.7-0.1 1.5 1 1.5 0.7 0 0.9-0.6 0.9-1.3 0-0.9 0.1-1.7 1.2-1.7 1 0 1.3 0.8 1.3 1.7 0 0.6 0.1 1.3 0.9 1.3 0.8 0 1-0.6 1-1.2 0-0.9 0.2-1.8 1.1-1.8 1.2 0 1.3 0.9 1.3 1.9 0 0.4 0.1 1 0.5 1 4.1-0.1 2.3 2.9 2.6 4.8 0.2 1.3 0 2.7 0 4.5 1.1-1.1 1.9-1.9 2.7-2.7 3 1.1 1 2.4 0.1 3.7 -3.9 5.6-7.9 10.6-11.9 16.1 -1.2 1.6-3 3.9-4 5.6 -0.8 0.9-1.1 1.5-2.3 0.9 -1.4-0.6-0.6-2.2 0-3.3 2.8-4.3 6-8.3 9.1-12.3 2.2-2.8 3.4-5.8 3-9.4 -0.1-1.1 0-2.2 0.2-2.6 -10.6 0.2-21.5 0-32.4 0 0.3 5.2 0.1 10.8 0.1 16.3 0 7.2 0.1 14.4 0 21.6 0 2.4 0.7 3.4 3.2 3.4 8.6-0.1 17.2-0.1 25.8 0 2.2 0 3.1-0.8 3-3 -0.1-3.6 0-7.1 0-10.9 -1.3 1.5-2.2 3-3.3 4.2 -0.8 0.9-1.7 1.8-3.1 0.7 -0.9-1.1 0.6-2.2 1.3-3.1"/><path class="_icon" d="M59.9 47.8c-3.7 0-7.4 0-11.1 0 -1.1 0-1.9-0.1-1.9-1.6 0-1.5 0.9-1.5 2-1.5 7.3 0 14.6 0 21.9 0 1 0 2-0.1 2 1.4 0.1 1.7-1 1.6-2.1 1.6C67.1 47.8 63.5 47.8 59.9 47.8z"/><path class="_icon" d="M60 50.8c3.5 0 7 0 10.5 0 1.1 0 2.2-0.4 2.3 1.5 0.1 1.7-1 1.6-2.1 1.6 -7.2 0-14.4 0-21.6 0 -1.1 0-2.2 0.2-2.2-1.6 0.1-1.8 1.2-1.5 2.3-1.5C52.8 50.8 56.4 50.8 60 50.8z"/><path class="_icon" d="M55.8 59.9c-2.3 0-4.6 0-6.9 0 -1 0-2 0.1-2-1.5 0-1.4 0.7-1.6 1.9-1.6 4.7 0 9.4 0 14.1 0 1.1 0 1.9 0 2 1.5 0.1 1.5-0.7 1.6-1.9 1.6C60.6 59.9 58.2 59.9 55.8 59.9z"/><path class="_icon" d="M67.4 71.5L67.4 71.5c-0.6-0.4-0.8-1.3-0.3-1.9L84.2 46c0.4-0.6 1.3-0.8 1.9-0.3l0 0c0.6 0.4 0.8 1.3 0.3 1.9L69.3 71.2C68.9 71.8 68 72 67.4 71.5z"/><polygon class="_icon" points="64.7 77.7 61.4 75.1 62.4 68.6 70.7 75.2 "/><polyline class="_icon" points="64.4 77.9 61.6 78.3 61.3 75.5 "/><path class="_icon" d="M97 41.5l-4.9 6.1c-0.5 0.6-1.4 0.7-2 0.2L84 42.9c-0.6-0.5-0.7-1.4-0.2-2l4.9-6.1c0.5-0.6 1.4-0.7 2-0.2l6.1 4.9C97.4 39.9 97.5 40.8 97 41.5z"/></svg>