<svg xmlns="http://www.w3.org/2000/svg" viewBox="0 0 120 120"><style type="text/css">  
	._icon{fill:#292929;}
	._inner{fill:#FFFFFF;}
	._bar{fill:#FFFFFF; fill-opacity: 0;}
</style><path class="_icon" d="M118.3 60c-0.1 32.5-26.1 58.4-58.7 58.3 -32 0-58-26.3-57.9-58.5C1.8 27.5 28 1.6 60.4 1.7 92.3 1.8 118.4 28.1 118.3 60z"/><path class="_inner" d="M60 115.8C29.6 116 4.4 90.8 4.2 60.4 4 29.7 29 4.4 59.6 4.2 90.2 4 115.7 29 115.8 59.5 116 90.5 91 115.7 60 115.8z"/><path class="_icon" d="M48.2 83.8c-4.9 0-9.9 0-14.8 0 -3.4 0-4.8-1.4-4.8-4.7 -0.1-7.3 0-14.7 0-22 0-2 1-3.1 2.4-4.5 2.5-2.4 6.5-4.2 5.4-8.9 -0.2-0.9-0.1-1.8 0-2.7 0.2-2.7 1.5-4.3 4.4-4.3 5.7 0 11.5 0.1 17.2 0 1.6 0 2 0.5 2 2.1 0.1 5.9 0.2 5.9-5.8 5.9 -2.6 0-5.2 0-7.8 0 -0.8 0-2.1-0.5-2.1 0.9 0 1.1-0.7 2.6 0.9 3.1 1.5 0.5 2.4 1.4 2.8 2.9 0.4 1.3 1.4 0.9 2.2 0.9 4.2 0 8.5 0 12.7 0 3.4 0 4.8 1.3 4.8 4.7 0.1 7.3 0.1 14.7 0 22 0 3.4-1.4 4.7-4.8 4.7C58.1 83.9 53.1 83.8 48.2 83.8z"/><path class="_icon" d="M91.3 52.5c0 10.6 0 20.7 0 31.2 -3.2-2.1-6.2-4-9-6 -1.7-1.2-3.4-1.8-5.6-1.8 -3.6 0.1-4.9-1.3-5-4.9 0-2.2-0.1-4.4 0-6.6 0.1-2.3 1.3-4.3 3.6-4 4.1 0.5 6.8-1.9 9.8-3.8C87.1 55.3 89 54 91.3 52.5z"/><path class="_icon" d="M70.8 36.7c1.7 0 3.4-0.1 5.1 0 2.3 0.2 3.7 1.6 3.7 3.9 0 2.2-1.3 3.7-3.5 3.8 -3.6 0.2-7.2 0.1-10.8 0.1 -1.1 0-1.4-0.5-1.4-1.5 0-0.1 0-0.2 0-0.3C63.5 36.7 63.5 36.7 70.8 36.7z"/><path class="_bar" d="M44 79.9c-2.9 0-5.8 0-8.7 0 -1.4 0-2.8-0.2-2.7-2 0-1.5 1.2-1.9 2.6-1.9 6.1 0 12.2 0 18.3 0 1.3 0 2.5 0.3 2.6 1.9 0.1 1.8-1.3 2-2.7 2C50.2 79.9 47.1 79.9 44 79.9z"/></svg>
 